<?xml version="1.0" encoding="utf-8"?>
<!-- Generator: Adobe Illustrator 26.3.1, SVG Export Plug-In . SVG Version: 6.00 Build 0)  -->
<svg version="1.1" id="katman_1" xmlns="http://www.w3.org/2000/svg" xmlns:xlink="http://www.w3.org/1999/xlink" x="0px" y="0px"
	 viewBox="0 0 25 25" style="enable-background:new 0 0 25 25;" xml:space="preserve">
<style type="text/css">
	.st0{fill-rule:evenodd;clip-rule:evenodd;fill:#00080A;}
	.st1{fill-rule:evenodd;clip-rule:evenodd;fill:#A91C1D;}
</style>
<path class="st0" d="M18.2,10.5L9,1.1C8.6,0.6,7.9,0.4,7.3,0.6C6.6,0.7,6.2,1.2,6,1.9L5.4,3.8C5.6,3.8,5.8,3.9,6,4L18.2,10.5z"/>
<path class="st0" d="M12.9,21.4l9.9-1.7c0.7-0.1,1.3-0.6,1.5-1.4c0.2-0.7,0-1.5-0.5-2l-0.6-0.6c-0.1,0.2-0.3,0.3-0.5,0.4L12.9,21.4z
	"/>
<path class="st0" d="M2.5,23.2L3.6,23V10L0.4,20.7c-0.2,0.7-0.1,1.4,0.4,1.9C1.2,23.1,1.9,23.3,2.5,23.2"/>
<path class="st1" d="M5.7,24.4c-0.3,0.2-0.6,0.1-0.9,0c-0.3-0.2-0.4-0.5-0.4-0.9V5.6c0-0.4,0.2-0.7,0.4-0.9c0.3-0.2,0.6-0.2,0.9,0
	l16.8,8.9c0.3,0.2,0.5,0.5,0.5,0.9c0,0.4-0.2,0.7-0.5,0.9L5.7,24.4z"/>
</svg>
